<svg xmlns="http://www.w3.org/2000/svg" width="96" height="96" viewBox="0 0 96 96" fill="none">
<path opacity="0.5" fill-rule="evenodd" clip-rule="evenodd" d="M32 13C30.8954 13 30 13.8954 30 15H66C66 13.8954 65.1046 13 64 13H32ZM26 17C24.8954 17 24 17.8954 24 19H72C72 17.8954 71.1046 17 70 17H26ZM72 23H24C18.4772 23 14 27.4772 14 33V63C14 66.6899 15.9986 69.9131 18.9723 71.6461L31.305 59.9119C33.1349 58.1708 35.9071 58.1708 37.737 59.9119L39.9027 61.9725C40.9604 62.9789 42.5197 62.9789 43.5774 61.9725L67.4004 39.3058C69.2303 37.5647 72.0024 37.5647 73.8323 39.3058L73.906 39.376L73.9641 39.4595L76.0229 42.4208C75.3295 42.5693 74.6462 42.7562 73.9759 42.9803L72.3843 40.6908C71.3287 39.7489 69.8138 39.7702 68.779 40.7548L44.956 63.4214C43.1261 65.1626 40.354 65.1626 38.5241 63.4214L36.3584 61.3608C35.3007 60.3545 33.7413 60.3545 32.6836 61.3608L20.9489 72.526C21.9108 72.8338 22.936 73 24 73H65.269C65.6746 73.4978 66.1069 73.9769 66.565 74.435C66.7579 74.628 66.9545 74.8163 67.1547 75H24C17.3726 75 12 69.6274 12 63V33C12 26.3726 17.3726 21 24 21H72C78.6274 21 84 26.3726 84 33V42.4258C83.3415 42.2839 82.674 42.1768 82 42.1055V33C82 27.4772 77.5228 23 72 23ZM30 41C32.2091 41 34 39.2091 34 37C34 34.7909 32.2091 33 30 33C27.7909 33 26 34.7909 26 37C26 39.2091 27.7909 41 30 41ZM30 43C33.3137 43 36 40.3137 36 37C36 33.6863 33.3137 31 30 31C26.6863 31 24 33.6863 24 37C24 40.3137 26.6863 43 30 43Z" fill="#0f1419"/>
<path d="M64 61C64 65.2435 65.6857 69.3131 68.6863 72.3137C71.6869 75.3143 75.7565 77 80 77C84.2435 77 88.3131 75.3143 91.3137 72.3137C94.3143 69.3131 96 65.2435 96 61C96 56.7565 94.3143 52.6869 91.3137 49.6863C88.3131 46.6857 84.2435 45 80 45C75.7565 45 71.6869 46.6857 68.6863 49.6863C65.6857 52.6869 64 56.7565 64 61Z" fill="#1e9df1"/>
<path d="M74 59L80 53L86 59" stroke="white" stroke-width="2" stroke-linecap="round" stroke-linejoin="round" fill="#1e9df1"/>
<path d="M80 53V69" stroke="white" stroke-width="2" stroke-linecap="round" stroke-linejoin="round" fill="#1e9df1"/>
</svg>